# xmcd
# 
# Track frame offsets:
#     150
#     144342
#     168097
# 
# Disc length: 3938
# 
# Revision: 1
# Processed by: cddbd v1.5.2PL0 Copyright (c) Steve Scherf et al.
# Submitted via: BonkEnc v1.0.15
# 
DISCID=1b0f6003
DTITLE=integral-masaje - Masaje-Música para crear un ambiente relajante
DYEAR=2000
DGENRE=New Age
TTITLE0=Love and Harmony
TTITLE1=The Dream of Angels
TTITLE2=The Music of the Forest
EXTD=YEAR: 2000
EXTT0=
EXTT1=
EXTT2=
PLAYORDER=
